<svg width="375" height="748" viewBox="0 0 375 748" fill="none" xmlns="http://www.w3.org/2000/svg">
<g clip-path="url(#clip0_56_1459)">
<g opacity="0.05">
<path d="M-300 61.3063C-232.612 62.3089 -164.954 50.2504 -112.936 123.816C-43.1025 222.482 76.9088 243.533 182.197 312.569C252.86 358.9 330.222 397.461 367.629 445.722C382.906 465.429 394.421 500.799 397.97 521.823C401.623 543.35 398.213 585.709 358.99 611.901C316.994 639.941 331.292 672.378 353.646 692.069C372.886 709.017 390.663 716.733 434.448 717.814" stroke="white" stroke-width="0.52" stroke-miterlimit="10" stroke-linecap="round"/>
</g>
<g opacity="0.09">
<path d="M-297.524 55.9844C-230.56 55.5613 -164.781 44.8192 -114.424 116.655C-47.2251 212.321 55.7513 237.143 157.005 306.13C233.779 358.444 323.325 382.43 366.493 434.954C382.552 454.484 393.295 488.613 397.087 510.556C401.068 533.48 398.527 573.899 359.305 600.091C317.308 628.131 325.649 663.837 351.898 686.958C372.414 705.029 392.402 712.535 436.287 712.745" stroke="white" stroke-width="0.55" stroke-miterlimit="10" stroke-linecap="round"/>
</g>
<g opacity="0.14">
<path d="M-294.965 50.6288C-228.487 48.8052 -164.606 39.4162 -115.934 109.488C-51.3759 202.162 34.419 231.012 131.791 299.685C214.613 358.1 316.299 367.472 365.35 424.179C382.124 443.578 392.161 476.42 396.195 499.27C400.513 523.596 398.82 562.07 359.604 588.254C317.607 616.294 319.999 655.274 350.134 681.82C371.926 701.015 394.126 708.309 438.105 707.656" stroke="white" stroke-width="0.57" stroke-miterlimit="10" stroke-linecap="round"/>
</g>
<g opacity="0.18">
<path d="M-292.507 45.2513C-226.482 42.0819 -164.463 33.9586 -117.415 102.32C-55.4918 191.993 12.9655 225.095 106.606 293.239C195.404 357.864 309.199 352.597 364.228 413.409C381.683 432.702 391.056 464.24 395.317 487.996C399.979 513.717 399.141 550.253 359.925 576.437C317.928 604.477 314.364 646.739 348.387 676.708C371.454 697.027 395.865 704.111 439.945 702.586" stroke="white" stroke-width="0.59" stroke-miterlimit="10" stroke-linecap="round"/>
</g>
<g opacity="0.23">
<path d="M-289.98 39.841C-224.463 35.3718 -164.311 28.5217 -118.925 95.1528C-59.6425 181.833 -8.61258 219.334 81.3998 286.801C176.091 357.777 301.985 337.806 363.086 402.648C381.195 421.864 389.924 452.061 394.426 476.723C399.417 503.841 399.448 538.436 360.232 564.62C318.236 592.66 308.714 638.191 346.631 671.591C370.982 693.04 397.589 699.899 441.777 697.511" stroke="white" stroke-width="0.61" stroke-miterlimit="10" stroke-linecap="round"/>
</g>
<g opacity="0.27">
<path d="M-287.498 34.4053C-222.493 28.6719 -164.174 23.0716 -120.42 87.9852C-63.7726 171.666 -30.2749 213.699 56.2002 280.356C156.687 357.808 294.69 323.092 361.951 391.88C380.693 411.041 388.791 439.882 393.549 465.449C398.877 493.97 399.769 526.619 360.553 552.803C318.557 580.843 303.085 629.648 344.882 666.465C370.508 689.038 399.327 695.687 443.616 692.427" stroke="white" stroke-width="0.64" stroke-miterlimit="10" stroke-linecap="round"/>
</g>
<g opacity="0.32">
<path d="M-284.946 28.9368C-220.5 21.9918 -164.038 17.6215 -121.916 80.8176C-67.9093 161.505 -52.0231 208.161 31.0007 273.91C137.157 357.983 287.324 308.474 360.807 381.105C380.157 400.228 387.664 427.696 392.65 454.17C398.322 484.086 400.069 514.796 360.846 540.988C318.85 569.027 297.422 621.115 343.106 661.356C370.008 685.053 401.038 691.49 445.414 687.361" stroke="white" stroke-width="0.66" stroke-miterlimit="10" stroke-linecap="round"/>
</g>
<g opacity="0.36">
<path d="M-282.467 23.4445C-218.57 15.3227 -163.931 12.1449 -123.411 73.6499C-72.0318 151.344 -73.8299 202.705 5.80112 267.465C117.502 358.314 279.884 293.924 359.678 370.329C379.629 389.435 386.545 415.503 391.772 442.882C397.781 474.201 400.389 502.964 361.167 529.156C319.17 557.196 291.793 612.559 341.364 656.223C369.541 681.044 402.783 687.27 447.259 682.27" stroke="white" stroke-width="0.68" stroke-miterlimit="10" stroke-linecap="round"/>
</g>
<g opacity="0.41">
<path d="M-280.102 17.9453C-216.723 8.68732 -163.849 6.62032 -124.907 66.4823C-76.1618 141.176 -95.7112 197.304 -19.3909 261.026C97.7017 358.81 272.392 279.463 358.55 359.567C379.096 378.664 385.426 403.323 390.895 431.608C397.233 464.323 400.696 491.148 361.48 517.332C319.484 545.372 286.149 604.003 339.615 651.098C369.076 677.049 404.528 683.05 449.112 677.186" stroke="white" stroke-width="0.7" stroke-miterlimit="10" stroke-linecap="round"/>
</g>
<g opacity="0.45">
<path d="M-277.682 12.4143C-214.862 2.05101 -163.766 1.10982 -126.417 59.3156C-80.3126 131.017 -117.654 191.942 -44.6047 254.582C77.7137 359.474 264.821 265.078 357.401 348.799C378.527 367.902 384.293 391.145 389.997 420.343C396.672 454.461 400.997 479.339 361.781 505.524C319.785 533.563 280.494 595.476 337.847 645.996C368.583 673.07 406.254 678.867 450.931 672.125" stroke="white" stroke-width="0.73" stroke-miterlimit="10" stroke-linecap="round"/>
</g>
<g opacity="0.5">
<path d="M-275.193 6.85065C-212.978 -4.56548 -163.674 -4.37996 -127.905 52.1545C-84.4352 120.855 -139.636 186.625 -69.7967 248.143C57.5681 360.332 257.213 250.78 356.265 338.031C377.974 357.153 383.167 378.958 389.113 409.062C396.131 444.575 401.311 467.515 362.095 493.7C320.098 521.739 274.858 586.927 336.098 640.87C368.117 669.075 407.992 674.654 452.77 667.042" stroke="white" stroke-width="0.75" stroke-miterlimit="10" stroke-linecap="round"/>
</g>
<g opacity="0.55">
<path d="M441.267 664.292C399.95 669.729 363.343 662.724 333.643 636.562C273.461 583.551 314.957 517.304 358.231 487.058C394.475 461.72 388.733 440.977 385.296 407.313C382.05 375.522 378.224 350.364 352.155 327.401C254.206 241.122 65.1279 343.217 -58.3649 234.438C-126.816 174.143 -77.1728 110.901 -121.17 44.4939C-163.089 -16.9508 -218.026 -10.3178 -287.34 4.57346" stroke="white" stroke-width="0.77" stroke-miterlimit="10" stroke-linecap="round"/>
</g>
<g opacity="0.59">
<path d="M444.56 659.45C400.705 666.316 362.127 659.521 331.181 632.261C272.065 580.189 309.82 512.939 354.353 480.431C387.713 456.084 381.876 437.097 381.467 405.579C381.02 371.683 378.461 343.589 348.032 316.786C251.186 231.479 72.6886 326.116 -46.9321 220.748C-113.988 161.682 -69.9095 100.961 -114.435 36.8473C-159.731 -25.1203 -215.333 -16.3549 -284.759 -0.535561" stroke="white" stroke-width="0.8" stroke-miterlimit="10" stroke-linecap="round"/>
</g>
<g opacity="0.64">
<path d="M447.96 654.53C401.501 662.9 360.94 656.329 328.733 627.96C270.682 576.826 304.694 508.637 350.496 473.795C381.042 450.555 375.596 433.031 377.658 403.837C380.218 367.525 378.718 336.807 343.938 306.17C248.194 221.834 80.2708 309.021 -35.4853 207.057C-101.152 149.214 -62.6397 91.0134 -107.692 29.2074C-156.365 -33.2831 -212.627 -22.393 -282.177 -5.64458" stroke="white" stroke-width="0.82" stroke-miterlimit="10" stroke-linecap="round"/>
</g>
<g opacity="0.68">
<path d="M451.281 649.565C402.247 659.452 359.716 653.105 326.278 623.652C269.285 573.45 299.608 504.41 346.632 467.153C374.428 445.128 369.813 428.87 373.841 402.087C379.693 363.159 378.975 330.01 339.834 295.533C245.194 212.169 87.8439 291.891 -24.0327 193.344C-88.3042 136.731 -55.35 81.0432 -100.937 21.5384C-152.988 -41.4751 -209.922 -28.4592 -279.576 -10.7761" stroke="white" stroke-width="0.84" stroke-miterlimit="10" stroke-linecap="round"/>
</g>
<g opacity="0.73">
<path d="M454.633 644.549C403.005 655.989 358.485 649.889 323.816 619.351C267.889 570.088 294.55 500.274 342.755 460.526C367.871 439.819 368.901 425.321 370.012 400.353C386.855 361.125 379.212 323.236 335.712 284.918C242.167 202.519 95.398 274.798 -12.6066 179.661C-75.4898 124.271 -48.0933 71.1105 -94.2077 13.8993C-149.636 -49.637 -207.236 -34.4889 -277.009 -15.8842" stroke="white" stroke-width="0.86" stroke-miterlimit="10" stroke-linecap="round"/>
</g>
<g opacity="0.77">
<path d="M457.927 639.508C403.713 652.508 357.245 646.651 321.369 615.05C266.507 566.725 289.597 496.245 338.898 453.891C361.389 434.576 363.471 421.471 366.203 398.611C387.607 357.563 379.47 316.453 331.609 274.295C239.168 192.868 102.972 257.682 -1.16069 165.956C-62.6557 111.788 -40.8168 61.1553 -87.4656 6.24528C-146.264 -57.8074 -204.53 -40.541 -274.414 -21.0083" stroke="white" stroke-width="0.89" stroke-miterlimit="10" stroke-linecap="round"/>
</g>
<g opacity="0.82">
<path d="M461.282 634.414C404.448 649.025 355.999 643.421 318.907 610.749C265.103 563.356 284.724 492.352 335.027 447.256C354.946 429.393 354.596 416.598 362.38 396.869C380.767 350.245 379.713 309.671 327.493 263.673C236.155 183.217 110.533 240.581 10.2721 152.266C-49.8271 99.3275 -33.5535 51.2152 -80.7301 -1.40127C-142.906 -65.9769 -201.845 -46.5848 -271.847 -26.1164" stroke="white" stroke-width="0.91" stroke-miterlimit="10" stroke-linecap="round"/>
</g>
<g opacity="0.86">
<path d="M464.613 629.286C405.168 645.514 354.744 640.171 316.452 606.441C263.714 559.986 280.038 488.624 331.157 440.621C348.564 424.278 349.95 412.719 358.549 395.121C382.322 346.498 379.949 302.883 323.369 253.044C233.134 173.56 118.085 223.459 21.6964 138.555C-37.0146 86.8394 -26.2986 41.2543 -73.9955 -9.06192C-139.548 -74.1604 -199.153 -52.636 -269.274 -31.2461" stroke="white" stroke-width="0.93" stroke-miterlimit="10" stroke-linecap="round"/>
</g>
<g opacity="0.91">
<path d="M467.853 624.17C405.832 642.008 353.468 636.915 313.997 602.147C262.325 556.631 275.58 485.137 327.293 433.993C342.241 419.202 345.401 409.019 354.734 393.385C384.611 343.37 380.2 296.107 319.26 242.428C230.128 163.916 125.66 206.357 33.1433 124.864C-24.172 74.3777 -19.0288 31.3066 -67.2526 -16.7018C-136.183 -82.3233 -196.447 -58.6741 -266.679 -36.356" stroke="white" stroke-width="0.95" stroke-miterlimit="10" stroke-linecap="round"/>
</g>
<g opacity="0.95">
<path d="M471.153 619.002C406.516 638.493 352.199 633.665 311.536 597.846C260.921 553.262 271.482 481.968 323.416 427.366C335.957 414.173 340.843 405.524 350.904 391.651C387.632 341.06 380.437 289.333 315.137 231.814C227.108 154.273 133.206 189.257 44.5694 111.181C-11.3577 61.9178 -11.7655 21.3664 -60.5238 -24.3409C-132.826 -90.5068 -193.755 -64.7254 -264.099 -41.4792" stroke="white" stroke-width="0.98" stroke-miterlimit="10" stroke-linecap="round"/>
</g>
<path d="M474.48 613.803C407.214 634.962 350.93 630.401 309.08 593.538C259.532 549.893 267.987 479.249 319.544 420.718C329.743 409.139 336.22 402.225 347.08 389.896C391.274 339.724 380.686 282.53 311.034 221.177C224.108 144.608 140.787 172.134 56.0144 97.4619C1.48311 49.4279 -4.48993 11.3972 -53.776 -32.0165C-129.468 -98.6763 -191.07 -70.7691 -261.525 -46.5948" stroke="white" stroke-miterlimit="10" stroke-linecap="round"/>
</g>
<defs>
<clipPath id="clip0_56_1459">
<rect width="1032.17" height="328.62" fill="white" transform="translate(-144.786 -181) rotate(41.3753)"/>
</clipPath>
</defs>
</svg>
