<svg width="119" height="30" viewBox="0 0 119 30" fill="none" xmlns="http://www.w3.org/2000/svg">
<path d="M32.0234 0H0.000135592V4.85144H30.4248V4.85583C31.3055 4.85583 32.0088 5.5521 32.0088 6.41651V22.7078L32.0047 22.7216C31.9993 23.5822 31.289 24.2738 30.4177 24.2738H6.50806C5.63273 24.2738 4.91635 23.5766 4.91635 22.7077V16.1262C4.91635 15.2618 5.63273 14.5601 6.50806 14.5601H27.0784V9.71516H4.90694C2.19691 9.71516 0 11.877 0 14.5467V24.2875C0 26.9591 2.19691 29.124 4.90694 29.124H32.0233C34.7357 29.124 36.9294 26.9591 36.9294 24.2875V4.8381C36.9294 2.16687 34.7357 0.000106935 32.0233 0.000106935" fill="white"/>
<path d="M50.2586 15.116H53.5891L51.9393 10.2433H51.8936L50.2586 15.116ZM55.1099 6.87637L58.9464 18.1893C59.4017 19.5696 59.724 19.8889 60.5235 19.8889H61.3035V21.8805H52.9266V19.8889H53.6136C54.3022 19.8889 54.875 19.7988 54.875 19.5528C54.875 19.3203 54.852 19.0717 54.7599 18.7315L54.2809 17.1059H49.5977L49.3178 18.0115C49.0673 18.8014 48.9743 19.1368 48.9743 19.4546C48.9743 19.8198 49.7804 19.8889 50.4046 19.8889H51.0647V21.8805H44.3164V19.8889H45.098C45.9017 19.8889 46.2175 19.5696 46.6834 18.1893L50.5166 6.87637H55.1099Z" fill="white"/>
<path d="M66.4488 16.5807C66.4488 18.8931 66.9751 20.271 68.2593 20.271C69.5517 20.271 70.0739 18.8931 70.0739 16.5807C70.0739 14.2746 69.5517 12.8952 68.2593 12.8952C66.9751 12.8952 66.4488 14.2746 66.4488 16.5807ZM62.6345 9.66096C62.6345 9.0216 62.4745 8.68611 61.8088 8.68611H60.7538V6.87637H66.4488V12.5083C67.2965 11.5576 68.3777 10.9471 69.4056 10.9471C72.8505 10.9471 74.1339 13.5998 74.1339 16.5807C74.1339 19.5696 72.8505 22.2159 69.4056 22.2159C67.9599 22.2159 66.6731 21.7188 65.8727 20.4737L65.2095 21.8821H62.6345V9.66096Z" fill="white"/>
<path d="M79.3264 16.5807C79.3264 18.8931 79.8592 20.271 81.1417 20.271C82.4285 20.271 82.9538 18.8931 82.9538 16.5807C82.9538 14.2746 82.4284 12.8952 81.1417 12.8952C79.8592 12.8952 79.3264 14.2746 79.3264 16.5807ZM75.5136 9.66096C75.5136 9.0216 75.3519 8.68611 74.6928 8.68611H73.6346V6.87637H79.3264V12.5083C80.1782 11.5576 81.2553 10.9471 82.2881 10.9471C85.7329 10.9471 87.0196 13.5998 87.0196 16.5807C87.0196 19.5696 85.7329 22.2159 82.2881 22.2159C80.8423 22.2159 79.5556 21.7188 78.7536 20.4737L78.0854 21.8821H75.5136V9.66096Z" fill="white"/>
<path d="M92.1839 16.5815C92.1839 19.2511 92.6653 20.4061 94.0434 20.4061C95.419 20.4061 95.8996 19.2511 95.8996 16.5815C95.8996 13.9119 95.419 12.7584 94.0434 12.7584C92.6653 12.7584 92.1839 13.9119 92.1839 16.5815ZM99.9661 16.5815C99.9661 20.2042 97.462 22.2159 94.0434 22.2159C90.6173 22.2159 88.1191 20.2042 88.1191 16.5815C88.1191 12.9611 90.6174 10.9471 94.0434 10.9471C97.462 10.9471 99.9661 12.9611 99.9661 16.5815Z" fill="white"/>
<path d="M116.334 16.7634V18.5281C116.334 19.5681 116.106 20.1835 115.233 20.1835C114.706 20.1835 114.456 19.7958 114.456 19.3188V13.0965H117.274V11.2852H114.456V7.08154H112.179C111.993 8.95651 111.398 11.2851 109.103 11.2851H105.522V7.08154H103.252C103.066 8.95651 102.468 11.2851 100.176 11.2851V13.0964H101.713V18.7758C101.713 21.085 103.021 22.2143 105.381 22.2143C108.142 22.2143 109.237 20.9957 109.237 18.7758V16.7633H107.407V18.528C107.407 19.568 107.175 20.1834 106.306 20.1834C105.773 20.1834 105.522 19.7957 105.522 19.3187V13.0964H110.648V18.7758C110.648 21.085 111.95 22.2143 114.315 22.2143C117.069 22.2143 118.174 20.9957 118.174 18.7758V16.7633H116.334V16.7634Z" fill="white"/>
</svg>
